<svg width="40" height="29" viewBox="0 0 40 29" fill="none" xmlns="http://www.w3.org/2000/svg">
<path d="M4.66724 28.2034C6.73314 28.2034 8.42114 26.4995 8.42114 24.4141V0H30.3399V24.4141C30.3399 26.4995 28.6519 28.2034 26.586 28.2034" fill="#00C689"/>
<path d="M22.8321 24.4128V21.5391H0.91333V24.4128C0.91333 26.4982 2.60133 28.2021 4.66723 28.2021H26.586C24.5201 28.2021 22.8321 26.4982 22.8321 24.4128Z" fill="#00859B"/>
<path d="M15.1478 4.85938H12.3513V6.08008H15.1478V4.85938Z" fill="white"/>
<path d="M25.9058 4.85938H17.3147V6.08008H25.9058V4.85938Z" fill="#F7C604"/>
<path d="M15.1478 9.17969H12.3513V10.4004H15.1478V9.17969Z" fill="white"/>
<path d="M25.9058 9.17969H17.3147V10.4004H25.9058V9.17969Z" fill="#F7C604"/>
<path d="M15.1478 13.5078H12.3513V14.7285H15.1478V13.5078Z" fill="white"/>
<path d="M25.9058 13.5078H17.3147V14.7285H25.9058V13.5078Z" fill="#F7C604"/>
<path d="M15.1478 17.8281H12.3513V19.0488H15.1478V17.8281Z" fill="white"/>
<path d="M25.9058 17.8281H17.3147V19.0488H25.9058V17.8281Z" fill="#F7C604"/>
<path opacity="0.1" d="M30.3399 18.0273V3.50598C30.0376 3.45512 29.7101 3.42969 29.3826 3.42969C25.3767 3.42969 22.1267 6.71034 22.1267 10.7539C22.1267 14.7975 25.3767 18.0782 29.3826 18.0782C29.7101 18.1036 30.0376 18.0782 30.3399 18.0273Z" fill="#0C1E5B"/>
<path d="M31.9273 16.633C35.9347 16.633 39.1833 13.3538 39.1833 9.30869C39.1833 5.26358 35.9347 1.98438 31.9273 1.98438C27.92 1.98438 24.6714 5.26358 24.6714 9.30869C24.6714 13.3538 27.92 16.633 31.9273 16.633Z" fill="#F74B4B"/>
<path d="M33.2119 8.79935V13.3516H30.6421V8.79935H28.929L31.927 5.26438L34.9251 8.79935H33.2119Z" fill="white"/>
</svg>
